<svg xmlns="http://www.w3.org/2000/svg" viewBox="0 0 1200 600" width="1200" height="600"><polygon stroke="#d1bc75" stroke-width="1" points="0.0 480.0 240.0 480.0 0.0 600.0 0.0 480.0" fill="#d1bc75"/><polygon stroke="#e8d587" stroke-width="1" points="120.0 480.0 120.0 240.0 0.0 480.0 120.0 480.0" fill="#e8d587"/><polygon stroke="#ebd889" stroke-width="1" points="120.0 480.0 120.0 240.0 240.0 480.0 120.0 480.0" fill="#ebd889"/><polygon stroke="#fae895" stroke-width="1" points="0.0 240.0 0.0 0.0 120.0 240.0 0.0 240.0" fill="#fae895"/><polygon stroke="#e2cf83" stroke-width="1" points="0.0 240.0 0.0 480.0 120.0 240.0 0.0 240.0" fill="#e2cf83"/><polygon stroke="#b7a061" stroke-width="1" points="312.0 384.0 120.0 240.0 240.0 480.0 312.0 384.0" fill="#b7a061"/><polygon stroke="#d4bf77" stroke-width="1" points="216.0 312.0 360.0 120.0 312.0 384.0 216.0 312.0" fill="#d4bf77"/><polygon stroke="#d7c37a" stroke-width="1" points="216.0 312.0 360.0 120.0 120.0 240.0 216.0 312.0" fill="#d7c37a"/><polygon stroke="#d3be77" stroke-width="1" points="456.0 192.0 600.0 0.0 360.0 120.0 456.0 192.0" fill="#d3be77"/><polygon stroke="#b69e60" stroke-width="1" points="456.0 192.0 312.0 384.0 360.0 120.0 456.0 192.0" fill="#b69e60"/><polygon stroke="#efdd8d" stroke-width="1" points="120.0 0.0 120.0 240.0 0.0 0.0 120.0 0.0" fill="#efdd8d"/><polygon stroke="#f8e794" stroke-width="1" points="120.0 120.0 360.0 120.0 120.0 0.0 120.0 120.0" fill="#f8e794"/><polygon stroke="#e1cd81" stroke-width="1" points="120.0 120.0 360.0 120.0 120.0 240.0 120.0 120.0" fill="#e1cd81"/><polygon stroke="#f2e08f" stroke-width="1" points="360.0 0.0 600.0 0.0 360.0 120.0 360.0 0.0" fill="#f2e08f"/><polygon stroke="#e6d385" stroke-width="1" points="360.0 0.0 120.0 0.0 360.0 120.0 360.0 0.0" fill="#e6d385"/><polygon stroke="#d4c077" stroke-width="1" points="720.0 0.0 720.0 240.0 600.0 0.0 720.0 0.0" fill="#d4c077"/><polygon stroke="#927743" stroke-width="1" points="720.0 120.0 960.0 120.0 720.0 0.0 720.0 120.0" fill="#927743"/><polygon stroke="#9f864e" stroke-width="1" points="720.0 120.0 960.0 120.0 720.0 240.0 720.0 120.0" fill="#9f864e"/><polygon stroke="#9e844d" stroke-width="1" points="960.0 0.0 1200.0 0.0 960.0 120.0 960.0 0.0" fill="#9e844d"/><polygon stroke="#a89055" stroke-width="1" points="960.0 0.0 720.0 0.0 960.0 120.0 960.0 0.0" fill="#a89055"/><polygon stroke="#e1cd81" stroke-width="1" points="528.0 96.0 720.0 240.0 600.0 0.0 528.0 96.0" fill="#e1cd81"/><polygon stroke="#d6c179" stroke-width="1" points="624.0 168.0 480.0 360.0 528.0 96.0 624.0 168.0" fill="#d6c179"/><polygon stroke="#a48b52" stroke-width="1" points="624.0 168.0 480.0 360.0 720.0 240.0 624.0 168.0" fill="#a48b52"/><polygon stroke="#b9a262" stroke-width="1" points="384.0 288.0 240.0 480.0 480.0 360.0 384.0 288.0" fill="#b9a262"/><polygon stroke="#bfa967" stroke-width="1" points="384.0 288.0 528.0 96.0 480.0 360.0 384.0 288.0" fill="#bfa967"/><polygon stroke="#7d6133" stroke-width="1" points="1200.0 120.0 960.0 120.0 1200.0 0.0 1200.0 120.0" fill="#7d6133"/><polygon stroke="#5f411c" stroke-width="1" points="1080.0 120.0 1080.0 360.0 1200.0 120.0 1080.0 120.0" fill="#5f411c"/><polygon stroke="#63451f" stroke-width="1" points="1080.0 120.0 1080.0 360.0 960.0 120.0 1080.0 120.0" fill="#63451f"/><polygon stroke="#593917" stroke-width="1" points="1200.0 360.0 1200.0 600.0 1080.0 360.0 1200.0 360.0" fill="#593917"/><polygon stroke="#5e3f1b" stroke-width="1" points="1200.0 360.0 1200.0 120.0 1080.0 360.0 1200.0 360.0" fill="#5e3f1b"/><polygon stroke="#73562b" stroke-width="1" points="888.0 216.0 1080.0 360.0 960.0 120.0 888.0 216.0" fill="#73562b"/><polygon stroke="#7b5f32" stroke-width="1" points="984.0 288.0 840.0 480.0 888.0 216.0 984.0 288.0" fill="#7b5f32"/><polygon stroke="#7f6335" stroke-width="1" points="984.0 288.0 840.0 480.0 1080.0 360.0 984.0 288.0" fill="#7f6335"/><polygon stroke="#6f5128" stroke-width="1" points="744.0 408.0 600.0 600.0 840.0 480.0 744.0 408.0" fill="#6f5128"/><polygon stroke="#7b5f32" stroke-width="1" points="744.0 408.0 888.0 216.0 840.0 480.0 744.0 408.0" fill="#7b5f32"/><polygon stroke="#5d3e1a" stroke-width="1" points="1080.0 600.0 1080.0 360.0 1200.0 600.0 1080.0 600.0" fill="#5d3e1a"/><polygon stroke="#5f401c" stroke-width="1" points="1080.0 480.0 840.0 480.0 1080.0 600.0 1080.0 480.0" fill="#5f401c"/><polygon stroke="#5a3a18" stroke-width="1" points="1080.0 480.0 840.0 480.0 1080.0 360.0 1080.0 480.0" fill="#5a3a18"/><polygon stroke="#5e3f1b" stroke-width="1" points="840.0 600.0 600.0 600.0 840.0 480.0 840.0 600.0" fill="#5e3f1b"/><polygon stroke="#664821" stroke-width="1" points="840.0 600.0 1080.0 600.0 840.0 480.0 840.0 600.0" fill="#664821"/><polygon stroke="#8a6f3e" stroke-width="1" points="480.0 600.0 480.0 360.0 600.0 600.0 480.0 600.0" fill="#8a6f3e"/><polygon stroke="#b0985b" stroke-width="1" points="480.0 480.0 240.0 480.0 480.0 600.0 480.0 480.0" fill="#b0985b"/><polygon stroke="#a58d53" stroke-width="1" points="480.0 480.0 240.0 480.0 480.0 360.0 480.0 480.0" fill="#a58d53"/><polygon stroke="#cbb570" stroke-width="1" points="240.0 600.0 0.0 600.0 240.0 480.0 240.0 600.0" fill="#cbb570"/><polygon stroke="#b59d5f" stroke-width="1" points="240.0 600.0 480.0 600.0 240.0 480.0 240.0 600.0" fill="#b59d5f"/><polygon stroke="#72552b" stroke-width="1" points="672.0 504.0 480.0 360.0 600.0 600.0 672.0 504.0" fill="#72552b"/><polygon stroke="#a58c53" stroke-width="1" points="576.0 432.0 720.0 240.0 672.0 504.0 576.0 432.0" fill="#a58c53"/><polygon stroke="#967b46" stroke-width="1" points="576.0 432.0 720.0 240.0 480.0 360.0 576.0 432.0" fill="#967b46"/><polygon stroke="#aa9156" stroke-width="1" points="816.0 312.0 960.0 120.0 720.0 240.0 816.0 312.0" fill="#aa9156"/><polygon stroke="#75582d" stroke-width="1" points="816.0 312.0 672.0 504.0 720.0 240.0 816.0 312.0" fill="#75582d"/></svg>
