<svg xmlns="http://www.w3.org/2000/svg" viewBox="0 0 2000 1000" width="2000" height="1000"><polygon points="80.0 960.0 0.0 800.0 0.0 1000.0 80.0 960.0" fill="#f0e0cf"/><polygon points="40.0 880.0 200.0 800.0 80.0 960.0 40.0 880.0" fill="#f0dfcf"/><polygon points="40.0 880.0 200.0 800.0 0.0 800.0 40.0 880.0" fill="#efdfcf"/><polygon points="240.0 880.0 400.0 800.0 200.0 800.0 240.0 880.0" fill="#efdfcf"/><polygon points="240.0 880.0 80.0 960.0 200.0 800.0 240.0 880.0" fill="#f0dfcf"/><polygon points="40.0 720.0 200.0 800.0 0.0 800.0 40.0 720.0" fill="#efdfcf"/><polygon points="120.0 760.0 200.0 600.0 40.0 720.0 120.0 760.0" fill="#efdfce"/><polygon points="120.0 760.0 200.0 600.0 200.0 800.0 120.0 760.0" fill="#efdfcf"/><polygon points="120.0 560.0 200.0 400.0 200.0 600.0 120.0 560.0" fill="#eeddcc"/><polygon points="120.0 560.0 40.0 720.0 200.0 600.0 120.0 560.0" fill="#efdece"/><polygon points="360.0 720.0 200.0 800.0 400.0 800.0 360.0 720.0" fill="#efdfcf"/><polygon points="280.0 760.0 200.0 600.0 360.0 720.0 280.0 760.0" fill="#efdece"/><polygon points="280.0 760.0 200.0 600.0 200.0 800.0 280.0 760.0" fill="#efdfcf"/><polygon points="280.0 560.0 200.0 400.0 200.0 600.0 280.0 560.0" fill="#eddccb"/><polygon points="280.0 560.0 360.0 720.0 200.0 600.0 280.0 560.0" fill="#efdece"/><polygon points="160.0 320.0 0.0 400.0 200.0 400.0 160.0 320.0" fill="#ead8c7"/><polygon points="80.0 360.0 0.0 200.0 160.0 320.0 80.0 360.0" fill="#e9d6c4"/><polygon points="80.0 360.0 0.0 200.0 0.0 400.0 80.0 360.0" fill="#e9d7c5"/><polygon points="80.0 160.0 0.0 0.0 0.0 200.0 80.0 160.0" fill="#dcc6af"/><polygon points="80.0 160.0 160.0 320.0 0.0 200.0 80.0 160.0" fill="#e5d1bd"/><polygon points="160.0 480.0 0.0 400.0 200.0 400.0 160.0 480.0" fill="#ebdac8"/><polygon points="80.0 440.0 0.0 600.0 160.0 480.0 80.0 440.0" fill="#eddccb"/><polygon points="80.0 440.0 0.0 600.0 0.0 400.0 80.0 440.0" fill="#eddccb"/><polygon points="80.0 640.0 0.0 800.0 0.0 600.0 80.0 640.0" fill="#efdfce"/><polygon points="80.0 640.0 160.0 480.0 0.0 600.0 80.0 640.0" fill="#eedecd"/><polygon points="360.0 720.0 520.0 640.0 400.0 800.0 360.0 720.0" fill="#efdfce"/><polygon points="440.0 680.0 360.0 520.0 360.0 720.0 440.0 680.0" fill="#efdece"/><polygon points="440.0 680.0 360.0 520.0 520.0 640.0 440.0 680.0" fill="#efdece"/><polygon points="280.0 560.0 200.0 400.0 360.0 520.0 280.0 560.0" fill="#eddccb"/><polygon points="280.0 560.0 360.0 720.0 360.0 520.0 280.0 560.0" fill="#eedecd"/><polygon points="536.0 552.0 360.0 520.0 520.0 640.0 536.0 552.0" fill="#eedecd"/><polygon points="448.0 536.0 480.0 360.0 536.0 552.0 448.0 536.0" fill="#eddccb"/><polygon points="448.0 536.0 480.0 360.0 360.0 520.0 448.0 536.0" fill="#ecdbca"/><polygon points="568.0 376.0 600.0 200.0 480.0 360.0 568.0 376.0" fill="#e9d7c5"/><polygon points="568.0 376.0 536.0 552.0 480.0 360.0 568.0 376.0" fill="#ecdbc9"/><polygon points="280.0 360.0 360.0 520.0 200.0 400.0 280.0 360.0" fill="#ecdac9"/><polygon points="320.0 440.0 480.0 360.0 280.0 360.0 320.0 440.0" fill="#ebd9c8"/><polygon points="320.0 440.0 480.0 360.0 360.0 520.0 320.0 440.0" fill="#eddbca"/><polygon points="440.0 280.0 600.0 200.0 480.0 360.0 440.0 280.0" fill="#e9d6c4"/><polygon points="440.0 280.0 280.0 360.0 480.0 360.0 440.0 280.0" fill="#e9d7c5"/><polygon points="680.0 160.0 760.0 320.0 600.0 200.0 680.0 160.0" fill="#e5d2be"/><polygon points="720.0 240.0 880.0 160.0 680.0 160.0 720.0 240.0" fill="#e2cdb9"/><polygon points="720.0 240.0 880.0 160.0 760.0 320.0 720.0 240.0" fill="#e6d3bf"/><polygon points="840.0 80.0 1000.0 0.0 880.0 160.0 840.0 80.0" fill="#d8c0a9"/><polygon points="840.0 80.0 680.0 160.0 880.0 160.0 840.0 80.0" fill="#dec8b2"/><polygon points="584.0 288.0 760.0 320.0 600.0 200.0 584.0 288.0" fill="#e8d5c3"/><polygon points="672.0 304.0 640.0 480.0 584.0 288.0 672.0 304.0" fill="#ead8c6"/><polygon points="672.0 304.0 640.0 480.0 760.0 320.0 672.0 304.0" fill="#ebd9c7"/><polygon points="552.0 464.0 520.0 640.0 640.0 480.0 552.0 464.0" fill="#eddccc"/><polygon points="552.0 464.0 584.0 288.0 640.0 480.0 552.0 464.0" fill="#ecdbc9"/><polygon points="40.0 80.0 200.0 0.0 0.0 0.0 40.0 80.0" fill="#d4bba2"/><polygon points="120.0 40.0 200.0 200.0 40.0 80.0 120.0 40.0" fill="#dbc4ad"/><polygon points="120.0 40.0 200.0 200.0 200.0 0.0 120.0 40.0" fill="#dbc4ae"/><polygon points="120.0 240.0 200.0 400.0 200.0 200.0 120.0 240.0" fill="#e7d4c0"/><polygon points="120.0 240.0 40.0 80.0 200.0 200.0 120.0 240.0" fill="#e1ccb7"/><polygon points="280.0 40.0 200.0 200.0 200.0 0.0 280.0 40.0" fill="#d7bfa7"/><polygon points="240.0 120.0 400.0 200.0 280.0 40.0 240.0 120.0" fill="#ddc7b1"/><polygon points="240.0 120.0 400.0 200.0 200.0 200.0 240.0 120.0" fill="#e3ceba"/><polygon points="440.0 120.0 600.0 200.0 400.0 200.0 440.0 120.0" fill="#e1ccb7"/><polygon points="440.0 120.0 280.0 40.0 400.0 200.0 440.0 120.0" fill="#dbc4ad"/><polygon points="280.0 360.0 200.0 200.0 200.0 400.0 280.0 360.0" fill="#e9d7c4"/><polygon points="240.0 280.0 400.0 200.0 280.0 360.0 240.0 280.0" fill="#e7d4c1"/><polygon points="240.0 280.0 400.0 200.0 200.0 200.0 240.0 280.0" fill="#e4d0bc"/><polygon points="440.0 280.0 600.0 200.0 400.0 200.0 440.0 280.0" fill="#e5d2be"/><polygon points="440.0 280.0 280.0 360.0 400.0 200.0 440.0 280.0" fill="#e7d4c1"/><polygon points="680.0 160.0 600.0 0.0 600.0 200.0 680.0 160.0" fill="#dec8b2"/><polygon points="640.0 80.0 800.0 0.0 680.0 160.0 640.0 80.0" fill="#d8bfa7"/><polygon points="640.0 80.0 800.0 0.0 600.0 0.0 640.0 80.0" fill="#d5bda4"/><polygon points="840.0 80.0 1000.0 0.0 800.0 0.0 840.0 80.0" fill="#d1b79d"/><polygon points="840.0 80.0 680.0 160.0 800.0 0.0 840.0 80.0" fill="#d7bfa6"/><polygon points="520.0 160.0 600.0 0.0 600.0 200.0 520.0 160.0" fill="#dec8b2"/><polygon points="560.0 80.0 400.0 0.0 520.0 160.0 560.0 80.0" fill="#dcc5ae"/><polygon points="560.0 80.0 400.0 0.0 600.0 0.0 560.0 80.0" fill="#d2b89e"/><polygon points="360.0 80.0 200.0 0.0 400.0 0.0 360.0 80.0" fill="#d6bda4"/><polygon points="360.0 80.0 520.0 160.0 400.0 0.0 360.0 80.0" fill="#d9c2aa"/><polygon points="1040.0 80.0 1200.0 0.0 1000.0 0.0 1040.0 80.0" fill="#d2b89e"/><polygon points="1120.0 40.0 1200.0 200.0 1040.0 80.0 1120.0 40.0" fill="#ddc6b0"/><polygon points="1120.0 40.0 1200.0 200.0 1200.0 0.0 1120.0 40.0" fill="#dcc5af"/><polygon points="1120.0 240.0 1200.0 400.0 1200.0 200.0 1120.0 240.0" fill="#e9d6c4"/><polygon points="1120.0 240.0 1040.0 80.0 1200.0 200.0 1120.0 240.0" fill="#e2cdb8"/><polygon points="1280.0 40.0 1200.0 200.0 1200.0 0.0 1280.0 40.0" fill="#dbc4ad"/><polygon points="1240.0 120.0 1400.0 200.0 1280.0 40.0 1240.0 120.0" fill="#ddc7b1"/><polygon points="1240.0 120.0 1400.0 200.0 1200.0 200.0 1240.0 120.0" fill="#e2cdb8"/><polygon points="1440.0 120.0 1600.0 200.0 1400.0 200.0 1440.0 120.0" fill="#e3ceba"/><polygon points="1440.0 120.0 1280.0 40.0 1400.0 200.0 1440.0 120.0" fill="#ddc7b0"/><polygon points="1280.0 360.0 1200.0 200.0 1200.0 400.0 1280.0 360.0" fill="#ead7c5"/><polygon points="1240.0 280.0 1400.0 200.0 1280.0 360.0 1240.0 280.0" fill="#e8d5c3"/><polygon points="1240.0 280.0 1400.0 200.0 1200.0 200.0 1240.0 280.0" fill="#e6d3c0"/><polygon points="1440.0 280.0 1600.0 200.0 1400.0 200.0 1440.0 280.0" fill="#e4d0bc"/><polygon points="1440.0 280.0 1280.0 360.0 1400.0 200.0 1440.0 280.0" fill="#e8d5c3"/><polygon points="1680.0 160.0 1600.0 0.0 1600.0 200.0 1680.0 160.0" fill="#dfcab4"/><polygon points="1640.0 80.0 1800.0 0.0 1680.0 160.0 1640.0 80.0" fill="#dcc5ae"/><polygon points="1640.0 80.0 1800.0 0.0 1600.0 0.0 1640.0 80.0" fill="#cfb398"/><polygon points="1840.0 80.0 2000.0 0.0 1800.0 0.0 1840.0 80.0" fill="#d5bca3"/><polygon points="1840.0 80.0 1680.0 160.0 1800.0 0.0 1840.0 80.0" fill="#dcc5ae"/><polygon points="1520.0 160.0 1600.0 0.0 1600.0 200.0 1520.0 160.0" fill="#dfcab4"/><polygon points="1560.0 80.0 1400.0 0.0 1520.0 160.0 1560.0 80.0" fill="#d7bfa7"/><polygon points="1560.0 80.0 1400.0 0.0 1600.0 0.0 1560.0 80.0" fill="#d6bda4"/><polygon points="1360.0 80.0 1200.0 0.0 1400.0 0.0 1360.0 80.0" fill="#d5bca3"/><polygon points="1360.0 80.0 1520.0 160.0 1400.0 0.0 1360.0 80.0" fill="#dbc4ad"/><polygon points="1040.0 80.0 880.0 160.0 1000.0 0.0 1040.0 80.0" fill="#d9c2aa"/><polygon points="960.0 120.0 1040.0 280.0 1040.0 80.0 960.0 120.0" fill="#e0cab5"/><polygon points="960.0 120.0 1040.0 280.0 880.0 160.0 960.0 120.0" fill="#e4d0bb"/><polygon points="1120.0 240.0 1200.0 400.0 1040.0 280.0 1120.0 240.0" fill="#e9d7c5"/><polygon points="1120.0 240.0 1040.0 80.0 1040.0 280.0 1120.0 240.0" fill="#e3ceba"/><polygon points="864.0 248.0 1040.0 280.0 880.0 160.0 864.0 248.0" fill="#e5d2be"/><polygon points="952.0 264.0 920.0 440.0 864.0 248.0 952.0 264.0" fill="#e9d7c4"/><polygon points="952.0 264.0 920.0 440.0 1040.0 280.0 952.0 264.0" fill="#ead8c6"/><polygon points="832.0 424.0 800.0 600.0 920.0 440.0 832.0 424.0" fill="#eddcca"/><polygon points="832.0 424.0 864.0 248.0 920.0 440.0 832.0 424.0" fill="#ebd9c8"/><polygon points="1120.0 440.0 1040.0 280.0 1200.0 400.0 1120.0 440.0" fill="#ebd9c8"/><polygon points="1080.0 360.0 920.0 440.0 1120.0 440.0 1080.0 360.0" fill="#ebdac8"/><polygon points="1080.0 360.0 920.0 440.0 1040.0 280.0 1080.0 360.0" fill="#ebd9c7"/><polygon points="960.0 520.0 800.0 600.0 920.0 440.0 960.0 520.0" fill="#eddccb"/><polygon points="960.0 520.0 1120.0 440.0 920.0 440.0 960.0 520.0" fill="#eddccb"/><polygon points="720.0 640.0 640.0 480.0 800.0 600.0 720.0 640.0" fill="#eeddcd"/><polygon points="680.0 560.0 520.0 640.0 720.0 640.0 680.0 560.0" fill="#efdece"/><polygon points="680.0 560.0 520.0 640.0 640.0 480.0 680.0 560.0" fill="#eeddcc"/><polygon points="560.0 720.0 400.0 800.0 520.0 640.0 560.0 720.0" fill="#efdfcf"/><polygon points="560.0 720.0 720.0 640.0 520.0 640.0 560.0 720.0" fill="#efdece"/><polygon points="816.0 512.0 640.0 480.0 800.0 600.0 816.0 512.0" fill="#eeddcc"/><polygon points="728.0 496.0 760.0 320.0 816.0 512.0 728.0 496.0" fill="#ecdbca"/><polygon points="728.0 496.0 760.0 320.0 640.0 480.0 728.0 496.0" fill="#eddbca"/><polygon points="848.0 336.0 880.0 160.0 760.0 320.0 848.0 336.0" fill="#e7d5c2"/><polygon points="848.0 336.0 816.0 512.0 760.0 320.0 848.0 336.0" fill="#ebd9c7"/><polygon points="1920.0 40.0 2000.0 200.0 2000.0 0.0 1920.0 40.0" fill="#d8c0a8"/><polygon points="1960.0 120.0 1800.0 200.0 1920.0 40.0 1960.0 120.0" fill="#dfc9b4"/><polygon points="1960.0 120.0 1800.0 200.0 2000.0 200.0 1960.0 120.0" fill="#e1ccb7"/><polygon points="1760.0 120.0 1600.0 200.0 1800.0 200.0 1760.0 120.0" fill="#e0cbb6"/><polygon points="1760.0 120.0 1920.0 40.0 1800.0 200.0 1760.0 120.0" fill="#dcc6af"/><polygon points="1960.0 280.0 1800.0 200.0 2000.0 200.0 1960.0 280.0" fill="#e5d2be"/><polygon points="1880.0 240.0 1800.0 400.0 1960.0 280.0 1880.0 240.0" fill="#e9d6c4"/><polygon points="1880.0 240.0 1800.0 400.0 1800.0 200.0 1880.0 240.0" fill="#e8d6c3"/><polygon points="1880.0 440.0 1800.0 600.0 1800.0 400.0 1880.0 440.0" fill="#eddccb"/><polygon points="1880.0 440.0 1960.0 280.0 1800.0 400.0 1880.0 440.0" fill="#ead9c7"/><polygon points="1640.0 280.0 1800.0 200.0 1600.0 200.0 1640.0 280.0" fill="#e5d1bd"/><polygon points="1720.0 240.0 1800.0 400.0 1640.0 280.0 1720.0 240.0" fill="#e9d7c5"/><polygon points="1720.0 240.0 1800.0 400.0 1800.0 200.0 1720.0 240.0" fill="#e8d5c3"/><polygon points="1720.0 440.0 1800.0 600.0 1800.0 400.0 1720.0 440.0" fill="#eddccb"/><polygon points="1720.0 440.0 1640.0 280.0 1800.0 400.0 1720.0 440.0" fill="#ebd9c7"/><polygon points="1840.0 680.0 2000.0 600.0 1800.0 600.0 1840.0 680.0" fill="#efdece"/><polygon points="1920.0 640.0 2000.0 800.0 1840.0 680.0 1920.0 640.0" fill="#efdfce"/><polygon points="1920.0 640.0 2000.0 800.0 2000.0 600.0 1920.0 640.0" fill="#efdfce"/><polygon points="1920.0 840.0 2000.0 1000.0 2000.0 800.0 1920.0 840.0" fill="#f0dfcf"/><polygon points="1920.0 840.0 1840.0 680.0 2000.0 800.0 1920.0 840.0" fill="#efdfcf"/><polygon points="1840.0 520.0 2000.0 600.0 1800.0 600.0 1840.0 520.0" fill="#eedecd"/><polygon points="1920.0 560.0 2000.0 400.0 1840.0 520.0 1920.0 560.0" fill="#eddccb"/><polygon points="1920.0 560.0 2000.0 400.0 2000.0 600.0 1920.0 560.0" fill="#eeddcc"/><polygon points="1920.0 360.0 2000.0 200.0 2000.0 400.0 1920.0 360.0" fill="#e9d7c4"/><polygon points="1920.0 360.0 1840.0 520.0 2000.0 400.0 1920.0 360.0" fill="#ecdbca"/><polygon points="1640.0 280.0 1480.0 360.0 1600.0 200.0 1640.0 280.0" fill="#e7d3c0"/><polygon points="1560.0 320.0 1640.0 480.0 1640.0 280.0 1560.0 320.0" fill="#ead8c6"/><polygon points="1560.0 320.0 1640.0 480.0 1480.0 360.0 1560.0 320.0" fill="#ebd9c7"/><polygon points="1720.0 440.0 1800.0 600.0 1640.0 480.0 1720.0 440.0" fill="#edddcc"/><polygon points="1720.0 440.0 1640.0 280.0 1640.0 480.0 1720.0 440.0" fill="#ebdac8"/><polygon points="1464.0 448.0 1640.0 480.0 1480.0 360.0 1464.0 448.0" fill="#ecdbca"/><polygon points="1552.0 464.0 1520.0 640.0 1464.0 448.0 1552.0 464.0" fill="#eeddcc"/><polygon points="1552.0 464.0 1520.0 640.0 1640.0 480.0 1552.0 464.0" fill="#eddccc"/><polygon points="1432.0 624.0 1400.0 800.0 1520.0 640.0 1432.0 624.0" fill="#efdfce"/><polygon points="1432.0 624.0 1464.0 448.0 1520.0 640.0 1432.0 624.0" fill="#eeddcc"/><polygon points="1720.0 640.0 1640.0 480.0 1800.0 600.0 1720.0 640.0" fill="#eeddcd"/><polygon points="1680.0 560.0 1520.0 640.0 1720.0 640.0 1680.0 560.0" fill="#eedecd"/><polygon points="1680.0 560.0 1520.0 640.0 1640.0 480.0 1680.0 560.0" fill="#eeddcd"/><polygon points="1560.0 720.0 1400.0 800.0 1520.0 640.0 1560.0 720.0" fill="#efdfcf"/><polygon points="1560.0 720.0 1720.0 640.0 1520.0 640.0 1560.0 720.0" fill="#efdece"/><polygon points="1320.0 840.0 1240.0 680.0 1400.0 800.0 1320.0 840.0" fill="#efdfcf"/><polygon points="1280.0 760.0 1120.0 840.0 1320.0 840.0 1280.0 760.0" fill="#efdfcf"/><polygon points="1280.0 760.0 1120.0 840.0 1240.0 680.0 1280.0 760.0" fill="#efdfcf"/><polygon points="1160.0 920.0 1000.0 1000.0 1120.0 840.0 1160.0 920.0" fill="#f0e0cf"/><polygon points="1160.0 920.0 1320.0 840.0 1120.0 840.0 1160.0 920.0" fill="#f0dfcf"/><polygon points="1416.0 712.0 1240.0 680.0 1400.0 800.0 1416.0 712.0" fill="#efdfce"/><polygon points="1328.0 696.0 1360.0 520.0 1416.0 712.0 1328.0 696.0" fill="#efdece"/><polygon points="1328.0 696.0 1360.0 520.0 1240.0 680.0 1328.0 696.0" fill="#eedecd"/><polygon points="1448.0 536.0 1480.0 360.0 1360.0 520.0 1448.0 536.0" fill="#eddbca"/><polygon points="1448.0 536.0 1416.0 712.0 1360.0 520.0 1448.0 536.0" fill="#eedecd"/><polygon points="1960.0 920.0 1800.0 1000.0 2000.0 1000.0 1960.0 920.0" fill="#f0e0d0"/><polygon points="1880.0 960.0 1800.0 800.0 1960.0 920.0 1880.0 960.0" fill="#f0e0cf"/><polygon points="1880.0 960.0 1800.0 800.0 1800.0 1000.0 1880.0 960.0" fill="#f0e0cf"/><polygon points="1880.0 760.0 1800.0 600.0 1800.0 800.0 1880.0 760.0" fill="#efdfcf"/><polygon points="1880.0 760.0 1960.0 920.0 1800.0 800.0 1880.0 760.0" fill="#efdfcf"/><polygon points="1720.0 960.0 1800.0 800.0 1800.0 1000.0 1720.0 960.0" fill="#f0e0cf"/><polygon points="1760.0 880.0 1600.0 800.0 1720.0 960.0 1760.0 880.0" fill="#f0dfcf"/><polygon points="1760.0 880.0 1600.0 800.0 1800.0 800.0 1760.0 880.0" fill="#efdfcf"/><polygon points="1560.0 880.0 1400.0 800.0 1600.0 800.0 1560.0 880.0" fill="#efdfcf"/><polygon points="1560.0 880.0 1720.0 960.0 1600.0 800.0 1560.0 880.0" fill="#f0dfcf"/><polygon points="1720.0 640.0 1800.0 800.0 1800.0 600.0 1720.0 640.0" fill="#efdece"/><polygon points="1760.0 720.0 1600.0 800.0 1720.0 640.0 1760.0 720.0" fill="#efdfce"/><polygon points="1760.0 720.0 1600.0 800.0 1800.0 800.0 1760.0 720.0" fill="#efdfcf"/><polygon points="1560.0 720.0 1400.0 800.0 1600.0 800.0 1560.0 720.0" fill="#efdfcf"/><polygon points="1560.0 720.0 1720.0 640.0 1600.0 800.0 1560.0 720.0" fill="#efdfce"/><polygon points="1320.0 840.0 1400.0 1000.0 1400.0 800.0 1320.0 840.0" fill="#f0dfcf"/><polygon points="1360.0 920.0 1200.0 1000.0 1320.0 840.0 1360.0 920.0" fill="#f0e0cf"/><polygon points="1360.0 920.0 1200.0 1000.0 1400.0 1000.0 1360.0 920.0" fill="#f0e0d0"/><polygon points="1160.0 920.0 1000.0 1000.0 1200.0 1000.0 1160.0 920.0" fill="#f0e0d0"/><polygon points="1160.0 920.0 1320.0 840.0 1200.0 1000.0 1160.0 920.0" fill="#f0e0cf"/><polygon points="1480.0 840.0 1400.0 1000.0 1400.0 800.0 1480.0 840.0" fill="#f0dfcf"/><polygon points="1440.0 920.0 1600.0 1000.0 1480.0 840.0 1440.0 920.0" fill="#f0dfcf"/><polygon points="1440.0 920.0 1600.0 1000.0 1400.0 1000.0 1440.0 920.0" fill="#f0e0d0"/><polygon points="1640.0 920.0 1800.0 1000.0 1600.0 1000.0 1640.0 920.0" fill="#f0e0d0"/><polygon points="1640.0 920.0 1480.0 840.0 1600.0 1000.0 1640.0 920.0" fill="#f0e0cf"/><polygon points="960.0 920.0 800.0 1000.0 1000.0 1000.0 960.0 920.0" fill="#f0e0d0"/><polygon points="880.0 960.0 800.0 800.0 960.0 920.0 880.0 960.0" fill="#f0dfcf"/><polygon points="880.0 960.0 800.0 800.0 800.0 1000.0 880.0 960.0" fill="#f0e0cf"/><polygon points="880.0 760.0 800.0 600.0 800.0 800.0 880.0 760.0" fill="#efdfce"/><polygon points="880.0 760.0 960.0 920.0 800.0 800.0 880.0 760.0" fill="#efdfcf"/><polygon points="720.0 960.0 800.0 800.0 800.0 1000.0 720.0 960.0" fill="#f0e0cf"/><polygon points="760.0 880.0 600.0 800.0 720.0 960.0 760.0 880.0" fill="#f0e0cf"/><polygon points="760.0 880.0 600.0 800.0 800.0 800.0 760.0 880.0" fill="#efdfcf"/><polygon points="560.0 880.0 400.0 800.0 600.0 800.0 560.0 880.0" fill="#efdfcf"/><polygon points="560.0 880.0 720.0 960.0 600.0 800.0 560.0 880.0" fill="#f0dfcf"/><polygon points="720.0 640.0 800.0 800.0 800.0 600.0 720.0 640.0" fill="#efdece"/><polygon points="760.0 720.0 600.0 800.0 720.0 640.0 760.0 720.0" fill="#efdfce"/><polygon points="760.0 720.0 600.0 800.0 800.0 800.0 760.0 720.0" fill="#efdfcf"/><polygon points="560.0 720.0 400.0 800.0 600.0 800.0 560.0 720.0" fill="#efdfcf"/><polygon points="560.0 720.0 720.0 640.0 600.0 800.0 560.0 720.0" fill="#efdfce"/><polygon points="320.0 840.0 400.0 1000.0 400.0 800.0 320.0 840.0" fill="#f0dfcf"/><polygon points="360.0 920.0 200.0 1000.0 320.0 840.0 360.0 920.0" fill="#f0e0cf"/><polygon points="360.0 920.0 200.0 1000.0 400.0 1000.0 360.0 920.0" fill="#f0e0d0"/><polygon points="160.0 920.0 0.0 1000.0 200.0 1000.0 160.0 920.0" fill="#f0e0d0"/><polygon points="160.0 920.0 320.0 840.0 200.0 1000.0 160.0 920.0" fill="#f0e0cf"/><polygon points="480.0 840.0 400.0 1000.0 400.0 800.0 480.0 840.0" fill="#f0dfcf"/><polygon points="440.0 920.0 600.0 1000.0 480.0 840.0 440.0 920.0" fill="#f0e0cf"/><polygon points="440.0 920.0 600.0 1000.0 400.0 1000.0 440.0 920.0" fill="#f0e0d0"/><polygon points="640.0 920.0 800.0 1000.0 600.0 1000.0 640.0 920.0" fill="#f0e0d0"/><polygon points="640.0 920.0 480.0 840.0 600.0 1000.0 640.0 920.0" fill="#f0e0cf"/><polygon points="960.0 920.0 1120.0 840.0 1000.0 1000.0 960.0 920.0" fill="#f0e0cf"/><polygon points="1040.0 880.0 960.0 720.0 960.0 920.0 1040.0 880.0" fill="#efdfcf"/><polygon points="1040.0 880.0 960.0 720.0 1120.0 840.0 1040.0 880.0" fill="#efdfcf"/><polygon points="880.0 760.0 800.0 600.0 960.0 720.0 880.0 760.0" fill="#efdfce"/><polygon points="880.0 760.0 960.0 920.0 960.0 720.0 880.0 760.0" fill="#efdfcf"/><polygon points="1136.0 752.0 960.0 720.0 1120.0 840.0 1136.0 752.0" fill="#efdfcf"/><polygon points="1048.0 736.0 1080.0 560.0 1136.0 752.0 1048.0 736.0" fill="#efdece"/><polygon points="1048.0 736.0 1080.0 560.0 960.0 720.0 1048.0 736.0" fill="#efdece"/><polygon points="1168.0 576.0 1200.0 400.0 1080.0 560.0 1168.0 576.0" fill="#eeddcc"/><polygon points="1168.0 576.0 1136.0 752.0 1080.0 560.0 1168.0 576.0" fill="#eedecd"/><polygon points="880.0 560.0 960.0 720.0 800.0 600.0 880.0 560.0" fill="#efdece"/><polygon points="920.0 640.0 1080.0 560.0 880.0 560.0 920.0 640.0" fill="#eeddcd"/><polygon points="920.0 640.0 1080.0 560.0 960.0 720.0 920.0 640.0" fill="#efdece"/><polygon points="1040.0 480.0 1200.0 400.0 1080.0 560.0 1040.0 480.0" fill="#eddccb"/><polygon points="1040.0 480.0 880.0 560.0 1080.0 560.0 1040.0 480.0" fill="#eeddcd"/><polygon points="1280.0 360.0 1360.0 520.0 1200.0 400.0 1280.0 360.0" fill="#ecdac9"/><polygon points="1320.0 440.0 1480.0 360.0 1280.0 360.0 1320.0 440.0" fill="#ecdac9"/><polygon points="1320.0 440.0 1480.0 360.0 1360.0 520.0 1320.0 440.0" fill="#eddbca"/><polygon points="1440.0 280.0 1600.0 200.0 1480.0 360.0 1440.0 280.0" fill="#e8d5c2"/><polygon points="1440.0 280.0 1280.0 360.0 1480.0 360.0 1440.0 280.0" fill="#ead8c6"/><polygon points="1184.0 488.0 1360.0 520.0 1200.0 400.0 1184.0 488.0" fill="#eddccb"/><polygon points="1272.0 504.0 1240.0 680.0 1184.0 488.0 1272.0 504.0" fill="#eeddcd"/><polygon points="1272.0 504.0 1240.0 680.0 1360.0 520.0 1272.0 504.0" fill="#eedecd"/><polygon points="1152.0 664.0 1120.0 840.0 1240.0 680.0 1152.0 664.0" fill="#efdfce"/><polygon points="1152.0 664.0 1184.0 488.0 1240.0 680.0 1152.0 664.0" fill="#efdece"/></svg>
